# xmcd CD database file
#
# Track frame offsets:
#	150
#	22385
#	52857
#	81210
#	97240
#
# Disc length: 1342 seconds
#
# Revision: 1
# Processed by: cddbd v1.5.1PL0 Copyright (c) Steve Scherf et al.
# Submitted via: CDex 1.51
#
DISCID=3d053c05
DTITLE=S.O.A.P. - GRACE
DYEAR=2003
DGENRE=Rock
TTITLE0=GRACE
TTITLE1=Every Second, I'm In ROMANCE
TTITLE2=A Song For You
TTITLE3=PRIVATE RELIGION
TTITLE4=S.O.A.P. YEAH! YEAH! YEAH!
EXTD=YEAR: 2003
EXTT0=
EXTT1=
EXTT2=
EXTT3=
EXTT4=
PLAYORDER=
